<svg width="512" height="512" viewBox="0 0 512 512" fill="none" xmlns="http://www.w3.org/2000/svg">
<g clip-path="url(#clip0_31_300)">
<path d="M320 503.616V436.256C394.4 409.824 448 339.52 448 256C448 172.544 394.4 102.208 320 75.776V8.384C430.336 36.864 512 136.768 512 256C512 375.264 430.336 475.168 320 503.616ZM96 384C42.976 384 0 340.992 0 288V224C0 198.539 10.1143 174.121 28.1178 156.118C46.1212 138.114 70.5392 128 96 128H128L288 0V512L128 384H96ZM224 384V128L160 192H96C87.5131 192 79.3738 195.371 73.3726 201.373C67.3714 207.374 64 215.513 64 224V288C64 305.696 78.304 320 96 320H160L224 384ZM416 256C416 315.552 375.136 365.184 320 379.456V311.136C339.072 300.032 352 279.616 352 256C352 232.384 339.072 211.968 320 200.864V132.544C375.136 146.784 416 196.416 416 256Z" fill="black"/>
</g>
<defs>
<clipPath id="clip0_31_300">
<rect width="512" height="512" fill="white"/>
</clipPath>
</defs>
</svg>
