<svg width="11" height="13" viewBox="0 0 11 13" fill="none" xmlns="http://www.w3.org/2000/svg">
<path fill-rule="evenodd" clip-rule="evenodd" d="M5.073 9.69932L1.79436 11.4824C1.53259 11.6174 1.21009 11.5218 1.06578 11.2664C1.02402 11.1873 1.0015 11.0996 1 11.0102V3.10953C1 1.60272 2.03722 1 3.52982 1H7.03614C8.4832 1 9.56596 1.56254 9.56596 3.00908V11.0102C9.56596 11.1528 9.50892 11.2895 9.40739 11.3903C9.30586 11.491 9.16816 11.5477 9.02458 11.5477C8.93299 11.5462 8.84297 11.5239 8.76148 11.4824L5.4626 9.69932C5.34103 9.63413 5.19457 9.63413 5.073 9.69932Z" stroke="#200E32" stroke-width="1.5" stroke-linecap="round" stroke-linejoin="round"/>
<path d="M3.25179 4.59142H7.28421" stroke="#200E32" stroke-width="1.5" stroke-linecap="round" stroke-linejoin="round"/>
</svg>
