<svg width="532" height="532" viewBox="0 0 532 532" fill="none" xmlns="http://www.w3.org/2000/svg">
<path d="M49.5633 36.8225C47.2478 34.5064 44.4988 32.6691 41.4731 31.4155C38.4474 30.162 35.2044 29.5168 31.9294 29.5168C28.6543 29.5168 25.4113 30.162 22.3857 31.4155C19.36 32.6691 16.6109 34.5064 14.2955 36.8225C11.9793 39.1379 10.1419 41.8868 8.88839 44.9124C7.63483 47.938 6.98962 51.1808 6.98962 54.4558C6.98962 57.7307 7.63483 60.9736 8.88839 63.9992C10.1419 67.0247 11.9793 69.7737 14.2955 72.0891L91.868 149.659H49.868C36.6422 149.659 23.9581 154.913 14.606 164.264C5.25394 173.616 0 186.3 0 199.525V332.447C0 345.672 5.25394 358.356 14.606 367.708C23.9581 377.06 36.6422 382.313 49.868 382.313H145.171L242.137 511.994C246.626 518.201 252.527 523.252 259.353 526.73C266.178 530.207 273.733 532.012 281.394 531.996C287.98 532.084 294.518 530.857 300.624 528.386C306.73 525.915 312.281 522.249 316.951 517.605C321.622 512.96 325.318 507.43 327.823 501.338C330.328 495.246 331.591 488.716 331.539 482.129V389.488L466.654 524.599C471.331 529.275 477.674 531.903 484.288 531.903C490.902 531.903 497.245 529.275 501.922 524.599C506.598 519.922 509.226 513.579 509.226 506.965C509.226 500.352 506.598 494.009 501.922 489.332L49.5633 36.8225ZM281.727 481.52L185.093 352.366L170.133 332.447H49.8957V199.47H141.625L281.727 339.567V481.52ZM411.937 328.735L382.238 299.203V203.736C382.279 201.013 383.154 198.368 384.744 196.157C386.334 193.947 388.564 192.276 391.132 191.371C393.701 190.465 396.485 190.368 399.11 191.093C401.735 191.818 404.075 193.33 405.815 195.425C421.682 213.747 430.902 236.887 431.983 261.1C433.064 285.313 425.943 309.183 411.771 328.845L411.937 328.735ZM384.787 97.6595C386.191 94.6983 388.166 92.043 390.597 89.8455C393.029 87.6479 395.869 85.9513 398.957 84.8526C402.045 83.7539 405.319 83.2748 408.592 83.4425C411.865 83.6102 415.073 84.4215 418.032 85.83C446.018 99.0441 470.534 118.607 489.629 142.961C508.724 167.316 521.872 195.79 528.027 226.12C534.182 256.449 533.174 287.797 525.083 317.668C516.992 347.539 502.041 375.11 481.42 398.187L446.014 362.921C460.971 345.494 471.702 324.85 477.373 302.596C483.043 280.342 483.499 257.08 478.706 234.621C473.912 212.162 463.997 191.113 449.735 173.113C435.473 155.114 417.247 140.65 396.478 130.848C390.536 127.987 385.97 122.888 383.779 116.668C381.588 110.448 381.95 103.613 384.787 97.6595ZM218.283 135.198L182.545 99.571L242.192 20.0064C246.682 13.7991 252.582 8.7482 259.408 5.27041C266.234 1.79263 273.789 -0.012317 281.449 0.0044888C288.036 -0.0842295 294.574 1.14296 300.679 3.61409C306.785 6.08522 312.336 9.75054 317.007 14.3951C321.677 19.0397 325.373 24.5701 327.878 30.6619C330.383 36.7537 331.647 43.2843 331.595 49.8708V248.533L281.727 198.667V50.3972L218.283 135.198Z" fill="black"/>
</svg>
