<svg width="4" height="12" viewBox="0 0 4 12" fill="none" xmlns="http://www.w3.org/2000/svg">
<path d="M2.36397 4.56472C2.5624 4.56472 2.75889 4.60185 2.94222 4.67398C3.12554 4.7461 3.29212 4.85183 3.43243 4.9851C3.57274 5.11838 3.68404 5.27661 3.75998 5.45074C3.83592 5.62488 3.875 5.81152 3.875 6C3.875 6.18848 3.83592 6.37512 3.75998 6.54926C3.68404 6.72339 3.57274 6.88162 3.43243 7.01489C3.29212 7.14817 3.12554 7.25389 2.94222 7.32602C2.75889 7.39815 2.5624 7.43528 2.36397 7.43528C1.96322 7.43519 1.57892 7.28389 1.29561 7.01466C1.0123 6.74544 0.853193 6.38033 0.853284 5.99967C0.853375 5.61901 1.01266 5.25398 1.2961 4.98487C1.57953 4.71577 1.96391 4.56463 2.36466 4.56472H2.36397ZM2.36397 2.86925C2.16563 2.86917 1.96925 2.83198 1.78604 2.7598C1.60283 2.68762 1.43638 2.58188 1.2962 2.4486C1.15601 2.31532 1.04484 2.15712 0.969019 1.98303C0.893201 1.80894 0.854224 1.62237 0.854314 1.43397C0.854404 1.24558 0.89356 1.05904 0.969545 0.885016C1.04553 0.710992 1.15686 0.552888 1.29717 0.419731C1.43748 0.286575 1.60403 0.180973 1.78731 0.108955C1.97059 0.0369374 2.167 -8.54872e-05 2.36534 1.48219e-07C2.76591 0.000173102 3.15 0.151487 3.43312 0.420654C3.71623 0.689821 3.87518 1.05479 3.875 1.43528C3.87482 1.81577 3.71552 2.1806 3.43215 2.44952C3.14877 2.71844 2.76454 2.86943 2.36397 2.86925ZM2.36397 9.12944C2.76472 9.12944 3.14906 9.28066 3.43243 9.54983C3.7158 9.81899 3.875 10.1841 3.875 10.5647C3.875 10.9454 3.7158 11.3104 3.43243 11.5796C3.14906 11.8488 2.76472 12 2.36397 12C1.96322 12 1.57888 11.8488 1.29551 11.5796C1.01214 11.3104 0.852941 10.9454 0.852941 10.5647C0.852941 10.1841 1.01214 9.81899 1.29551 9.54983C1.57888 9.28066 1.96322 9.12944 2.36397 9.12944Z" fill="black"/>
</svg>
